<?xml version="1.0" encoding="UTF-8"?>
<svg xmlns="http://www.w3.org/2000/svg" width="32" height="32" viewBox="0 0 32 32">
  <defs>
    <linearGradient id="logo-gradient" x1="0%" y1="0%" x2="100%" y2="100%">
      <stop offset="0%" stop-color="#4a90e2" />
      <stop offset="50%" stop-color="#06d6a0" />
      <stop offset="100%" stop-color="#ffd166" />
    </linearGradient>
  </defs>
  <rect width="32" height="32" rx="6" fill="#2d3142" />
  <g transform="translate(6, 6) scale(0.625)">
    <path fill="url(#logo-gradient)" d="M20, 15 L40, 15 L40, 20 L35, 20 L35, 45 L25, 45 L25, 20 L20, 20 L20, 15 Z" />
    <path fill="url(#logo-gradient)" d="M45, 15 L55, 15 L55, 45 L45, 45 L45, 15 Z" />
    <path fill="url(#logo-gradient)" d="M15, 25 L15, 35 L10, 35 L10, 25 L15, 25 Z" />
    <path fill="url(#logo-gradient)" d="M5, 30 L5, 40 L0, 40 L0, 30 L5, 30 Z" />
    <path fill="url(#logo-gradient)" d="M45, 10 L45, 5 L55, 5 L55, 10 L45, 10 Z" />
  </g>
</svg>
