<?xml version="1.0" encoding="UTF-8"?>
<svg xmlns="http://www.w3.org/2000/svg" viewBox="0 0 24 24" width="60" height="60">
  <defs>
    <linearGradient id="gradient" x1="0%" y1="0%" x2="100%" y2="100%">
      <stop offset="0%" stop-color="#06d6a0" />
      <stop offset="100%" stop-color="#ffd166" />
    </linearGradient>
  </defs>
  <path fill="url(#gradient)" d="M14.04,12H10V11H5.5A3.5,3.5 0 0,1 2,7.5A3.5,3.5 0 0,1 5.5,4C6.39,4 7.19,4.33 7.8,4.88L9,4V3H11V7H13V3H15V4L16.2,4.88C16.81,4.33 17.61,4 18.5,4A3.5,3.5 0 0,1 22,7.5A3.5,3.5 0 0,1 18.5,11H14.04V12M10,16.9V15.76H5V13.76H19V15.76H14.04V16.92L20,19.08C20.58,19.29 21,19.84 21,20.5A1.5,1.5 0 0,1 19.5,22H4.5A1.5,1.5 0 0,1 3,20.5C3,19.84 3.42,19.29 4,19.08L10,16.9Z" />
</svg>
