<?xml version="1.0" encoding="UTF-8"?>
<svg xmlns="http://www.w3.org/2000/svg" viewBox="0 0 24 24" width="60" height="60">
  <defs>
    <linearGradient id="gradient" x1="0%" y1="0%" x2="100%" y2="100%">
      <stop offset="0%" stop-color="#4a90e2" />
      <stop offset="100%" stop-color="#06d6a0" />
    </linearGradient>
  </defs>
  <path fill="url(#gradient)" d="M10,2V4.26L12,5.59V4H22V19H17V21H24V2H10M7.5,5L0,10V21H15V10L7.5,5M14,6V6.93L15.61,8H16V6H14M18,6V8H20V6H18M7.5,7.5L13,11V19H10V13H5V19H2V11L7.5,7.5M18,10V12H20V10H18M18,14V16H20V14H18Z" />
</svg>
